inDegrees=yes
name=ik_xsens_converted_data
DataType=double
version=3
OpenSimVersion=4.5-2023-11-26-efcdfd3eb
endheader
time	pelvis_tilt	pelvis_list	pelvis_rotation	pelvis_tx	pelvis_ty	pelvis_tz	hip_flexion_r	hip_adduction_r	hip_rotation_r	knee_angle_r	knee_angle_r_beta	ankle_angle_r	subtalar_angle_r	mtp_angle_r	hip_flexion_l	hip_adduction_l	hip_rotation_l	knee_angle_l	knee_angle_l_beta	ankle_angle_l	subtalar_angle_l	mtp_angle_l	lumbar_extension	lumbar_bending	lumbar_rotation	arm_flex_r	arm_add_r	arm_rot_r	elbow_flex_r	pro_sup_r	wrist_flex_r	wrist_dev_r	arm_flex_l	arm_add_l	arm_rot_l	elbow_flex_l	pro_sup_l	wrist_flex_l	wrist_dev_l
11.5	-0.4487541193496902	-0.1063475627976724	-156.2774804787803	0	0.93	0	44.98852889017208	-9.99999998851092	0	59.93569507019143	1.046075218446174	-4.999999851047155	0	0	44.98852889017208	-9.99999998851092	0	59.93569507019143	1.046075218446174	-4.999999851047155	0	0	0.4175136349402089	0.2215469525390616	-1.328374325210496	-0.1896508338990944	-0.1053084439819177	-0.6862485057829315	0.5764517455435564	0.3166714513895769	0	5.000000137526114	-0.7228095767594648	-0.1722189407724046	-1.948398564282266	0.4297705260240136	0.9555828530672483	0	5.000000137526114
11.5167	-0.4482069089153304	-0.1066074606824558	-156.2774092363439	0	0.93	0	44.98853081590133	-9.999999988510959	0	59.9357035288529	1.046075366077667	-4.999999851047155	0	0	44.98853081590133	-9.999999988510959	0	59.9357035288529	1.046075366077667	-4.999999851047155	0	0	0.4257050746084933	0.2232387501716764	-1.322084417981894	-0.1906670480378757	-0.1010769936352975	-0.6797795605117236	0.5758452391412164	0.3152311368101368	0	5.000000137526114	-0.7255959799487078	-0.1746882297622335	-1.941353616663533	0.4314323334428318	0.9684085597272516	0	5.000000137526114
11.5333	-0.4470369856792206	-0.1061709791414625	-156.2910662169767	0	0.93	0	44.98853280690695	-9.999999988510996	0	59.93571228411889	1.046075518885886	-4.999999851047155	0	0	44.98853280690695	-9.999999988510996	0	59.93571228411889	1.046075518885886	-4.999999851047155	0	0	0.4336872371883853	0.2242039285158052	-1.302474634039379	-0.1914626596006961	-0.0978475806348352	-0.6784961848666782	0.5767705182031559	0.3143063433565206	0	5.000000137526114	-0.7279974413277769	-0.1745037208574463	-1.936302831615231	0.4328150836224392	0.9673682888694826	0	5.000000137526114
11.55	-0.4497570655617351	-0.1084755712161854	-156.2910000090675	0	0.93	0	44.98853469171674	-9.999999988511034	0	59.9357205683728	1.046075663473393	-4.999999851047155	0	0	44.98853469171674	-9.999999988511034	0	59.9357205683728	1.046075663473393	-4.999999851047155	0	0	0.4377481554460973	0.2258960705453513	-1.296733877027249	-0.19444670707574	-0.09386690739998314	-0.6837139070042162	0.5759608483221823	0.3148863171075876	0	5.000000137526114	-0.734521218542562	-0.1776534585981619	-1.935244642874461	0.434053951068831	0.9676577263615984	0	5.000000137526114
11.5667	-0.4555732199964438	-0.1086278676976802	-156.3020230421082	0	0.93	0	44.98853648596677	-9.999999988511068	0	59.935728458893	1.04607580118895	-4.999999851047155	0	0	44.98853648596677	-9.999999988511068	0	59.935728458893	1.04607580118895	-4.999999851047155	0	0	0.438490199760134	0.2272904743624372	-1.283384527614145	-0.1963235506178429	-0.08695736134214835	-0.6834657845513747	0.5745763033467443	0.3144593072831859	0	5.000000137526114	-0.7412760033738396	-0.1842000414234169	-1.933244579406212	0.4334432824444924	0.9677620082389264	0	5.000000137526114
11.5833	-0.4575165150451553	-0.1094257881857252	-156.3048237933635	0	0.93	0	44.98853837144656	-9.999999988511105	0	59.93573674593333	1.046075945825089	-4.999999851047155	0	0	44.98853837144656	-9.999999988511105	0	59.93573674593333	1.046075945825089	-4.999999851047155	0	0	0.4448690264347909	0.228211872163879	-1.278679584153776	-0.1996438478541283	-0.08039422604682486	-0.6826031439013598	0.5751048197961507	0.3148887912320292	0	5.000000137526114	-0.7440597660203829	-0.1881031051246947	-1.930727843448746	0.4315465062331922	0.972546333744023	0	5.000000137526114
11.6	-0.4605732190098277	-0.111146945919025	-156.3157196056987	0	0.93	0	44.98854025981232	-9.999999988511142	0	59.93574505307993	1.046076090812148	-4.999999851047155	0	0	44.98854025981232	-9.999999988511142	0	59.93574505307993	1.046076090812148	-4.999999851047155	0	0	0.4470081690944645	0.2265964374602287	-1.263798435029444	-0.2026508090683809	-0.074011738083485	-0.6882504458115215	0.5747990343241697	0.3156898220826227	0	5.000000137526114	-0.7474842213795195	-0.1909875895094217	-1.936253398942682	0.4292649539494572	0.9687629589796535	0	5.000000137526114
11.6167	-0.4678303209479581	-0.1120816832290039	-156.3157863131817	0	0.93	0	44.98854212676235	-9.999999988511178	0	59.93575325421981	1.046076233949042	-4.999999851047155	0	0	44.98854212676235	-9.999999988511178	0	59.93575325421981	1.046076233949042	-4.999999851047155	0	0	0.449320153956378	0.2267501204857942	-1.253722928447321	-0.2090381019163239	-0.06628485728493944	-0.6864662073444595	0.5729701876571237	0.3087130869325138	0	5.000000137526114	-0.7487451454077739	-0.194956034294728	-1.937946208157544	0.4228648468843191	0.9671232610878951	0	5.000000137526114
11.6333	-0.4657718557676211	-0.1116993981271997	-156.3214898010899	0	0.93	0	44.98854404195824	-9.999999988511217	0	59.93576167924724	1.04607638099351	-4.999999851047155	0	0	44.98854404195824	-9.999999988511217	0	59.93576167924724	1.04607638099351	-4.999999851047155	0	0	0.4488048977389236	0.2261221073410701	-1.254702848235696	-0.2097085223692078	-0.06237389650560782	-0.6841801890243863	0.5763704570125812	0.3139611608202173	0	5.000000137526114	-0.7504411306048759	-0.1963082900691313	-1.950357374678499	0.4279035593678063	0.9537720012390934	0	5.000000137526114
11.65	-0.4690707949150285	-0.1136123973101862	-156.3242096228951	0	0.93	0	44.98854601872824	-9.999999988511252	0	59.93577036696034	1.046076532622708	-4.999999851047155	0	0	44.98854601872824	-9.999999988511252	0	59.93577036696034	1.046076532622708	-4.999999851047155	0	0	0.4498445742874345	0.2257433540684501	-1.250911243298244	-0.2097001446350818	-0.0603079011985461	-0.6775240953597885	0.5779618593512816	0.3129922613609951	0	5.000000137526114	-0.7509679199966881	-0.1994775311931621	-1.95086826389145	0.4264208570952751	0.9536605577506837	0	5.000000137526114
11.6667	-0.4687010431358911	-0.1151944162509099	-156.3245478689662	0	0.93	0	44.9885479335543	-9.99999998851129	0	59.93577878501991	1.046076679545564	-4.999999851047155	0	0	44.9885479335543	-9.99999998851129	0	59.93577878501991	1.046076679545564	-4.999999851047155	0	0	0.4494792937039359	0.2277958845983253	-1.249080580220072	-0.209813096701836	-0.05810632280447743	-0.676116763374532	0.5793507224156383	0.3119825288587028	0	5.000000137526114	-0.7537758808742273	-0.2011422185277822	-1.951006969777073	0.4261667650058645	0.9501130504245756	0	5.000000137526114
11.6833	-0.4702669096347769	-0.117389351885076	-156.3253725580265	0	0.93	0	44.98854975669613	-9.999999988511325	0	59.93578679889343	1.046076819414043	-4.999999851047155	0	0	44.98854975669613	-9.999999988511325	0	59.93578679889343	1.046076819414043	-4.999999851047155	0	0	0.4485539464360141	0.2238085627080552	-1.247050257993803	-0.2114026341536239	-0.05875567943769084	-0.6708017609647035	0.5769996499109684	0.3118186058590255	0	5.000000137526114	-0.7586458893609397	-0.2027271136332998	-1.947811809350321	0.4269657413385826	0.9476470450538105	0	5.000000137526114
11.7	-0.4689002874659718	-0.1205091428024747	-156.3342436552676	0	0.93	0	44.98855163321568	-9.999999988511364	0	59.9357950546043	1.04607696350338	-4.999999851047155	0	0	44.98855163321568	-9.999999988511364	0	59.9357950546043	1.04607696350338	-4.999999851047155	0	0	0.4501466045514739	0.2234832252032492	-1.238272473402511	-0.2115977925618578	-0.05933868410103984	-0.6770917728844529	0.5764900164295037	0.3121713513953204	0	5.000000137526114	-0.759275847354813	-0.2052585740506989	-1.947680850990428	0.4266702937442008	0.9475256163969068	0	5.000000137526114
11.7167	-0.4673537898446066	-0.1188826064364739	-156.3336072222129	0	0.93	0	44.98855347823558	-9.9999999885114	0	59.9358031729837	1.04607710519583	-4.999999851047155	0	0	44.98855347823558	-9.9999999885114	0	59.9358031729837	1.04607710519583	-4.999999851047155	0	0	0.4494447216159332	0.2227901925737198	-1.236306795164998	-0.2137907641011236	-0.05998875255922908	-0.6958337209234262	0.5747843618191694	0.314432185081826	0	5.000000137526114	-0.7579970515262631	-0.2057281056041978	-1.959531915256643	0.4272290506362635	0.9525656991441745	0	5.000000137526114
11.7333	-0.4665018337694012	-0.1231263889628934	-156.3344018773207	0	0.93	0	44.98855536564646	-9.999999988511439	0	59.93581147379087	1.046077250072246	-4.999999851047155	0	0	44.98855536564646	-9.999999988511439	0	59.93581147379087	1.046077250072246	-4.999999851047155	0	0	0.4486918436470225	0.2224289706635742	-1.234397702388578	-0.2129251408193937	-0.06166201021421423	-0.7021261907169348	0.5743041689904295	0.3154379735863266	0	5.000000137526114	-0.7596890661773164	-0.2064437051264544	-1.960103058379548	0.4300610759976598	0.951565170940172	0	5.000000137526114
11.75	-0.46846426026928	-0.1242633399290133	-156.3327743083433	0	0.93	0	44.98855716438173	-9.999999988511474	0	59.93581938219054	1.046077388099859	-4.999999851047155	0	0	44.98855716438173	-9.999999988511474	0	59.93581938219054	1.046077388099859	-4.999999851047155	0	0	0.4450966194176329	0.2204946943331756	-1.23532180116928	-0.2115425950885466	-0.06558723119623053	-0.704423164288864	0.5723451480551761	0.3164822891292765	0	5.000000137526114	-0.7633427766082032	-0.2065689229123341	-1.950822362516394	0.4327580196612694	0.9499176904486101	0	5.000000137526114
11.7667	-0.4670153336454903	-0.1253959582313396	-156.3351101753802	0	0.93	0	44.98855893503914	-9.999999988511508	0	59.93582717124789	1.046077524044555	-4.999999851047155	0	0	44.98855893503914	-9.999999988511508	0	59.93582717124789	1.046077524044555	-4.999999851047155	0	0	0.4420648133817107	0.2209561991552673	-1.235414064239996	-0.2120667682592983	-0.06810610800949547	-0.7079989114222428	0.571707162933777	0.3156271018292908	0	5.000000137526114	-0.7628940495906498	-0.2044375838768188	-1.95191633401029	0.434505805320169	0.9490260628225653	0	5.000000137526114
11.7833	-0.4711389191677818	-0.1270396930751495	-156.3366413194065	0	0.93	0	44.98856079546012	-9.999999988511547	0	59.93583535492182	1.04607766687661	-4.999999851047155	0	0	44.98856079546012	-9.999999988511547	0	59.93583535492182	1.04607766687661	-4.999999851047155	0	0	0.4389739537363043	0.2219740675324859	-1.234211713901785	-0.2157451957621871	-0.07080156395770154	-0.7176478746824537	0.5727172498351655	0.3144804531408305	0	5.000000137526114	-0.7638477150181314	-0.2004899165359943	-1.95854692218619	0.432294092971844	0.95061776614973	0	5.000000137526114
11.8	-0.4731545451726343	-0.1260474304789673	-156.3448067890171	0	0.93	0	44.98856263937162	-9.999999988511584	0	59.93584346696588	1.046077808458488	-4.999999851047155	0	0	44.98856263937162	-9.999999988511584	0	59.93584346696588	1.046077808458488	-4.999999851047155	0	0	0.4368837836438049	0.225774463504348	-1.224616995606538	-0.2214452370440662	-0.07492510955676723	-0.7203594341013233	0.575379788837326	0.3118741089798919	0	5.000000137526114	-0.7639705809060618	-0.1959870335679881	-1.959284600930335	0.4311339878211312	0.9524051804956726	0	5.000000137526114
